HIERARCHY
ROOT Hips
{
	OFFSET 0.00000 0.00000 0.00000
	CHANNELS 6 Xposition Yposition Zposition Zrotation Yrotation Xrotation 
	JOINT RightUpLegDummy
	{
		OFFSET 0 0 0
		CHANNELS 3 Zrotation Yrotation Xrotation
		JOINT RightUpLeg
		{
			OFFSET -3.52197 -3.41223 0.04002
			CHANNELS 3 Zrotation Yrotation Xrotation
			JOINT RightLeg
			{
				OFFSET 0.00006 -17.42390 1.60435
				CHANNELS 3 Zrotation Yrotation Xrotation
				JOINT RightFoot
				{
					OFFSET 0.06154 -16.50078 -1.63900
					CHANNELS 3 Zrotation Yrotation Xrotation
					JOINT RightToes
					{
						OFFSET 0.00298 -1.73825 3.34613
						CHANNELS 3 Zrotation Yrotation Xrotation
						End Site
						{
							OFFSET 0.00480 -0.05416 3.85043
						}
					}
				}
			}
		}
	}
	JOINT SpineDummy
	{
		OFFSET 0 0 0
		CHANNELS 3 Zrotation Yrotation Xrotation
		JOINT Spine
		{
			OFFSET 0.00000 4.68130 0.00000
			CHANNELS 3 Zrotation Yrotation Xrotation
			JOINT Spine1
			{
				OFFSET -0.00000 10.10138 0.05002
				CHANNELS 3 Zrotation Yrotation Xrotation
				JOINT HEadDummy
				{
					OFFSET 0 0 0
					CHANNELS 3 Zrotation Yrotation Xrotation
					JOINT Head
					{
						OFFSET -0.00000 3.43865 0.00438
						CHANNELS 3 Zrotation Yrotation Xrotation
						End Site
						{
							OFFSET -0.11417 5.02924 0.98962
						}
					}
				}
				JOINT LeftShoulder1Dummy
				{
					OFFSET 0 0 0
					CHANNELS 3 Zrotation Yrotation Xrotation
					JOINT LeftShoulder1
					{
						OFFSET 3.53937 -0.14262 -0.08662
						CHANNELS 3 Zrotation Yrotation Xrotation
						JOINT LeftArm
						{
							OFFSET 4.04833 -0.00133 0.12681
							CHANNELS 3 Zrotation Yrotation Xrotation
							JOINT LeftForeArm
							{
								OFFSET 10.33880 -0.01036 -0.55515
								CHANNELS 3 Zrotation Yrotation Xrotation
								JOINT LeftHand
								{
									OFFSET 8.69677 0.07543 0.40060
									CHANNELS 3 Zrotation Yrotation Xrotation
									End Site
									{
										OFFSET 5.28377 -0.21905 0.59205
									}
								}
							}
						}
					}
				}
				JOINT RightShoulderDummy
				{
					OFFSET 0 0 0
					CHANNELS 3 Zrotation Yrotation Xrotation
					JOINT RightShoulder
					{
						OFFSET -3.53937 -0.14262 -0.08660
						CHANNELS 3 Zrotation Yrotation Xrotation
						JOINT RightArm
						{
							OFFSET -4.04833 -0.00133 0.12683
							CHANNELS 3 Zrotation Yrotation Xrotation
							JOINT RightForeArm
							{
								OFFSET -10.37987 -0.01039 -0.55511
								CHANNELS 3 Zrotation Yrotation Xrotation
								JOINT RightHand
								{
									OFFSET -8.67398 0.07538 0.40058
									CHANNELS 3 Zrotation Yrotation Xrotation
									End Site
									{
										OFFSET -5.24810 -0.21916 0.59204
									}
								}
							}
						}
					}
				}
			}
		}
	}
	JOINT LeftUpLegDummy
	{
		OFFSET 0 0 0
		CHANNELS 3 Zrotation Yrotation Xrotation
		JOINT LeftUpLeg
		{
			OFFSET 3.52197 -3.41223 0.04002
			CHANNELS 3 Zrotation Yrotation Xrotation
			JOINT LeftLeg
			{
				OFFSET -0.00012 -17.42399 1.60337
				CHANNELS 3 Zrotation Yrotation Xrotation
				JOINT LeftFoot
				{
					OFFSET -0.09972 -16.50070 -1.63802
					CHANNELS 3 Zrotation Yrotation Xrotation
					JOINT LeftToes
					{
						OFFSET -0.01575 -1.73823 3.34611
						CHANNELS 3 Zrotation Yrotation Xrotation
						End Site
						{
							OFFSET 0.03150 -0.01868 3.85031
						}
					}
				}
			}
		}
	}
}
MOTION
Frames: 18
Frame Time: 0.033333
-6.3092 39.3891 8.3145 -176.8530 32.1347 -175.0510 0.0000 0.0000 0.0000 -2.6874 -5.1816 -6.1633 -4.0886 -10.2990 12.7005 11.8245 -0.5220 -6.4937 0.0000 0.0000 -0.0000 0.0000 0.0000 0.0000 -4.2861 2.0853 4.3440 1.8337 1.4576 29.8490 0.0000 0.0000 0.0000 -9.4673 24.8862 -21.5817 0.0000 0.0000 0.0000 -17.1710 -7.6041 2.6569 -48.7019 -19.0780 18.4837 -52.5019 -88.9993 44.7931 27.7553 -1.6293 -1.6877 0.0000 0.0000 0.0000 13.0399 1.9756 1.1039 57.2114 15.1028 15.7858 179.6182 64.3773 -174.7361 -12.5912 5.0324 -1.0923 0.0000 0.0000 0.0000 4.3741 10.5331 -17.5139 6.4282 12.1114 21.3137 -2.6140 0.1718 -4.5731 -0.0000 -0.0000 0.0000
-6.3087 39.3891 8.3145 -176.8530 32.1336 -175.0470 0.0000 0.0000 0.0000 -2.6874 -5.1947 -6.1762 -4.0886 -10.2991 12.7200 11.8040 -0.5207 -6.5099 0.0000 0.0000 -0.0000 0.0000 0.0000 0.0000 -4.2947 2.0853 4.3396 1.8502 1.4535 29.8407 0.0000 0.0000 0.0000 -9.4821 24.8862 -21.6020 0.0000 0.0000 0.0000 -17.1710 -7.6288 2.6569 -48.7091 -19.0783 18.4648 -52.0308 -88.9933 44.3086 27.6697 -1.5909 -1.6732 0.0000 0.0000 0.0000 13.0259 1.9843 1.1039 57.1874 15.0938 15.7386 179.6165 64.3501 -174.7653 -12.4924 5.0125 -1.0814 0.0000 0.0000 0.0000 4.3741 10.5500 -17.5222 6.4138 12.0816 21.3140 -2.6140 0.1718 -4.5775 -0.0000 -0.0000 0.0000
-6.3064 39.3891 8.3145 -176.8540 32.1290 -175.0390 0.0000 0.0000 0.0000 -2.6876 -5.2051 -6.1963 -4.0887 -10.2991 12.7450 11.7932 -0.5200 -6.5303 0.0000 0.0000 -0.0000 0.0000 0.0000 0.0000 -4.3114 2.0853 4.3306 1.8733 1.4465 29.8408 0.0000 0.0000 0.0000 -9.5369 24.8865 -21.6684 0.0000 0.0000 0.0000 -17.1711 -7.6503 2.6569 -48.7154 -19.0800 18.4477 -52.0892 -88.9940 44.3468 27.5442 -1.5575 -1.6574 0.0000 0.0000 0.0000 13.0055 2.0000 1.1039 57.1578 15.0805 15.6862 179.6124 64.3093 -174.8147 -12.4055 4.9774 -1.0700 0.0000 0.0000 0.0000 4.3741 10.5608 -17.5361 6.4032 12.0580 21.3144 -2.6167 0.1720 -4.5855 -0.0000 -0.0000 0.0000
-6.3036 39.3891 8.3140 -176.8610 32.1226 -175.0460 0.0000 0.0000 0.0000 -2.6912 -5.2090 -6.1939 -4.0887 -10.2992 12.7561 11.7895 -0.5197 -6.5394 0.0000 0.0000 -0.0000 0.0000 0.0000 0.0000 -4.3297 2.0855 4.3289 1.8851 1.4411 29.8585 0.0000 0.0000 0.0000 -9.5927 24.8916 -21.7499 0.0000 0.0000 0.0000 -17.1712 -7.6423 2.6578 -48.6995 -19.0877 18.4652 -53.0350 -89.0058 45.2606 27.4620 -1.5457 -1.6494 0.0000 0.0000 0.0000 12.9998 2.0108 1.1039 57.1390 15.0705 15.6684 179.6070 64.2880 -174.8682 -12.4577 4.9434 -1.0713 0.0000 0.0000 0.0000 4.3741 10.5584 -17.5297 6.3997 12.0523 21.3120 -2.6293 0.1728 -4.5898 -0.0000 -0.0000 0.0000
-6.2995 39.3891 8.3118 -176.8750 32.1134 -175.0760 0.0000 0.0000 0.0000 -2.7029 -5.2174 -6.1582 -4.0878 -10.2977 12.7513 11.7800 -0.5191 -6.5435 0.0000 0.0000 -0.0000 0.0000 0.0000 0.0000 -4.3491 2.0885 4.3344 1.8951 1.4385 29.8891 0.0000 0.0000 0.0000 -9.6067 24.9083 -21.7992 0.0000 0.0000 0.0000 -17.1714 -7.6289 2.6588 -48.6644 -19.1011 18.4988 -53.1268 -89.0068 45.3275 27.5313 -1.5394 -1.6523 0.0000 0.0000 0.0000 12.9928 2.0062 1.1029 57.1423 15.0651 15.6676 179.6049 64.2944 -174.8908 -12.6040 4.9299 -1.0831 0.0000 0.0000 0.0000 4.3741 10.5506 -17.4930 6.3951 12.0495 21.2998 -2.6402 0.1735 -4.5840 -0.0000 -0.0000 0.0000
-6.2941 39.3891 8.3086 -176.8870 32.1113 -175.1060 0.0000 0.0000 0.0000 -2.7131 -5.2279 -6.1186 -4.0826 -10.2896 12.7432 11.7768 -0.5185 -6.5544 0.0000 0.0000 -0.0000 0.0000 0.0000 0.0000 -4.3634 2.0992 4.3310 1.9153 1.4404 29.9251 0.0000 0.0000 0.0000 -9.5936 24.9203 -21.8120 0.0000 0.0000 0.0000 -17.1720 -7.6378 2.6586 -48.6397 -19.1089 18.5005 -51.4696 -88.9859 43.7168 27.7274 -1.5528 -1.6678 0.0000 0.0000 0.0000 12.9648 1.9887 1.0983 57.1743 15.0613 15.6620 179.6072 64.3077 -174.8648 -12.7278 4.9493 -1.0962 0.0000 0.0000 0.0000 4.3741 10.5531 -17.4540 6.3882 12.0403 21.2906 -2.6276 0.1727 -4.5791 -0.0000 -0.0000 0.0000
-6.2887 39.3891 8.3059 -176.8870 32.1261 -175.1080 0.0000 0.0000 0.0000 -2.7121 -5.2305 -6.1094 -4.0710 -10.2732 12.7443 11.7827 -0.5172 -6.5691 0.0000 0.0000 -0.0000 0.0000 0.0000 0.0000 -4.3618 2.1154 4.3067 1.9332 1.4508 29.9638 0.0000 0.0000 0.0000 -9.5947 24.9140 -21.8231 0.0000 0.0000 0.0000 -17.1692 -7.6466 2.6559 -48.6512 -19.1182 18.4624 -50.1416 -88.9680 42.4843 27.8201 -1.5846 -1.6811 0.0000 0.0000 0.0000 12.9415 1.9654 1.0924 57.2163 15.0650 15.6655 179.6146 64.3068 -174.8093 -12.7871 4.9868 -1.1054 0.0000 0.0000 0.0000 4.3741 10.5821 -17.4415 6.3804 12.0234 21.2922 -2.6060 0.1713 -4.5815 -0.0000 -0.0000 0.0000
-6.2833 39.3891 8.3034 -176.8840 32.1522 -175.0940 0.0000 0.0000 0.0000 -2.7087 -5.2309 -6.1239 -4.0562 -10.2512 12.7531 11.7702 -0.5150 -6.5785 0.0000 0.0000 -0.0000 0.0000 0.0000 0.0000 -4.3498 2.1310 4.2668 1.9350 1.4690 30.0083 0.0000 0.0000 0.0000 -9.6161 24.9114 -21.8535 0.0000 0.0000 0.0000 -17.1444 -7.6164 2.6465 -48.7012 -19.1564 18.4238 -51.0708 -88.9807 43.4048 27.6742 -1.5717 -1.6689 0.0000 0.0000 0.0000 12.9532 1.9351 1.0870 57.2430 15.0906 15.6962 179.6326 64.3011 -174.7539 -12.8207 5.0188 -1.1118 0.0000 0.0000 0.0000 4.3732 10.6329 -17.4425 6.3683 12.0003 21.2893 -2.6069 0.1713 -4.5942 -0.0000 -0.0000 0.0000
-6.2766 39.3891 8.2996 -176.8940 32.1717 -175.0900 0.0000 0.0000 0.0000 -2.7155 -5.2399 -6.1301 -4.0449 -10.2279 12.7602 11.7305 -0.5110 -6.5854 0.0000 0.0000 -0.0000 0.0000 0.0000 0.0000 -4.3473 2.1428 4.2303 1.9320 1.4857 30.0507 0.0000 0.0000 0.0000 -9.6328 24.9482 -21.8942 0.0000 0.0000 0.0000 -17.0979 -7.5609 2.6285 -48.7666 -19.2250 18.4136 -53.1587 -89.0071 45.3177 27.4847 -1.4810 -1.6356 0.0000 0.0000 0.0000 12.9770 1.9007 1.0813 57.2535 15.1334 15.7333 179.6350 64.3012 -174.7445 -12.8596 5.0516 -1.1187 0.0000 0.0000 0.0000 4.3677 10.6763 -17.4288 6.3518 11.9776 21.2685 -2.6335 0.1730 -4.6037 -0.0000 -0.0000 0.0000
-6.2689 39.3891 8.2954 -176.9140 32.1720 -175.0990 0.0000 0.0000 0.0000 -2.7259 -5.2471 -6.1224 -4.0484 -10.2193 12.7672 11.7026 -0.5078 -6.5988 0.0000 0.0000 -0.0000 0.0000 0.0000 0.0000 -4.3558 2.1476 4.2197 1.9311 1.4925 30.0630 0.0000 0.0000 0.0000 -9.6368 25.0261 -21.9371 0.0000 0.0000 0.0000 -17.0602 -7.5221 2.6155 -48.8088 -19.2804 18.4318 -53.7806 -89.0143 45.7831 27.4895 -1.3981 -1.6165 0.0000 0.0000 0.0000 12.9871 1.8829 1.0782 57.2525 15.1617 15.7423 179.6191 64.3066 -174.7978 -12.8996 5.1043 -1.1278 0.0000 0.0000 0.0000 4.3576 10.6864 -17.4073 6.3405 11.9658 21.2474 -2.6588 0.1747 -4.6046 -0.0000 -0.0000 0.0000
-6.2626 39.3891 8.2928 -176.9300 32.1564 -175.1040 0.0000 0.0000 0.0000 -2.7274 -5.2357 -6.1231 -4.0730 -10.2385 12.7876 11.7160 -0.5072 -6.6180 0.0000 0.0000 -0.0000 0.0000 0.0000 0.0000 -4.3503 2.1382 4.2451 1.9099 1.4921 30.0311 0.0000 0.0000 0.0000 -9.6474 25.1150 -21.9913 0.0000 0.0000 0.0000 -17.0644 -7.4974 2.6100 -48.7901 -19.2932 18.4723 -52.7350 -89.0017 44.7841 27.5984 -1.4170 -1.6277 0.0000 0.0000 0.0000 13.0198 1.8974 1.0827 57.2196 15.1605 15.7286 179.6038 64.3066 -174.8911 -12.9396 5.1586 -1.1371 0.0000 0.0000 0.0000 4.3525 10.6632 -17.4051 6.3436 11.9710 21.2495 -2.6660 0.1751 -4.6064 -0.0000 -0.0000 0.0000
-6.2583 39.3891 8.2918 -176.9380 32.1402 -175.1010 0.0000 0.0000 0.0000 -2.7232 -5.2137 -6.1401 -4.1046 -10.2687 12.8238 11.7427 -0.5076 -6.6365 0.0000 0.0000 -0.0000 0.0000 0.0000 0.0000 -4.3228 2.1157 4.2840 1.8603 1.4902 29.9967 0.0000 0.0000 0.0000 -9.6793 25.1864 -22.0675 0.0000 0.0000 0.0000 -17.1061 -7.4513 2.6033 -48.7128 -19.2962 18.5165 -51.9781 -88.9924 44.1796 27.5873 -1.4961 -1.6456 0.0000 0.0000 0.0000 13.1060 1.9265 1.0928 57.1413 15.1650 15.7251 179.5956 64.2947 -174.9802 -12.9910 5.1755 -1.1436 0.0000 0.0000 0.0000 4.3497 10.6258 -17.4190 6.3586 11.9919 21.2679 -2.6633 0.1750 -4.6082 -0.0000 -0.0000 0.0000
-6.2534 39.3891 8.2904 -176.9500 32.1364 -175.1040 0.0000 0.0000 0.0000 -2.7237 -5.2044 -6.1537 -4.1213 -10.2789 12.8586 11.7492 -0.5068 -6.6553 0.0000 0.0000 -0.0000 0.0000 0.0000 0.0000 -4.3073 2.0966 4.2979 1.8279 1.4840 30.0193 0.0000 0.0000 0.0000 -9.7194 25.2186 -22.1559 0.0000 0.0000 0.0000 -17.1484 -7.3945 2.5941 -48.6306 -19.3280 18.5232 -52.2105 -88.9956 44.4569 27.5027 -1.5366 -1.6498 0.0000 0.0000 0.0000 13.1895 1.9364 1.0987 57.0541 15.2154 15.7371 179.5908 64.2826 -175.0358 -13.0510 5.1579 -1.1473 0.0000 0.0000 0.0000 4.3489 10.5913 -17.4207 6.3759 12.0217 21.2782 -2.6647 0.1750 -4.6103 -0.0000 -0.0000 0.0000
-6.2459 39.3891 8.2880 -176.9660 32.1437 -175.1150 0.0000 0.0000 0.0000 -2.7316 -5.2098 -6.1504 -4.1200 -10.2668 12.8766 11.7525 -0.5058 -6.6776 0.0000 0.0000 -0.0000 0.0000 0.0000 0.0000 -4.3333 2.0956 4.2824 1.8532 1.4697 30.0868 0.0000 0.0000 0.0000 -9.7426 25.1999 -22.2273 0.0000 0.0000 0.0000 -17.1627 -7.3774 2.5912 -48.5971 -19.3608 18.4781 -52.6689 -89.0012 44.8444 27.5523 -1.5311 -1.6517 0.0000 0.0000 0.0000 13.2053 1.9221 1.0979 57.0036 15.2885 15.7400 179.5847 64.2788 -175.0926 -13.0926 5.1357 -1.1488 0.0000 0.0000 0.0000 4.3508 10.5663 -17.4036 6.3889 12.0486 21.2782 -2.6783 0.1759 -4.6126 -0.0000 -0.0000 0.0000
-6.2374 39.3891 8.2857 -176.9730 32.1539 -175.1200 0.0000 0.0000 0.0000 -2.7297 -5.2091 -6.1410 -4.1179 -10.2574 12.8801 11.7525 -0.5048 -6.6954 0.0000 0.0000 -0.0000 0.0000 0.0000 0.0000 -4.3726 2.1049 4.2740 1.8974 1.4574 30.1247 0.0000 0.0000 0.0000 -9.7424 25.1600 -22.2564 0.0000 0.0000 0.0000 -17.1545 -7.4021 2.5966 -48.6047 -19.3429 18.4334 -53.1095 -89.0067 45.2419 27.7294 -1.5357 -1.6638 0.0000 0.0000 0.0000 13.1832 1.9105 1.0996 56.9926 15.3195 15.7325 179.5762 64.2703 -175.1832 -13.0898 5.1057 -1.1454 0.0000 0.0000 0.0000 4.3605 10.5563 -17.3872 6.3947 12.0593 21.2814 -2.7076 0.1778 -4.6162 -0.0000 -0.0000 0.0000
-6.2291 39.3891 8.2842 -176.9640 32.1702 -175.1120 0.0000 0.0000 0.0000 -2.7099 -5.1883 -6.1357 -4.1264 -10.2565 12.8765 11.7483 -0.5037 -6.6974 0.0000 0.0000 -0.0000 0.0000 0.0000 0.0000 -4.3697 2.1057 4.2893 1.8836 1.4644 30.1126 0.0000 0.0000 0.0000 -9.7384 25.1628 -22.2497 0.0000 0.0000 0.0000 -17.1514 -7.4055 2.5970 -48.6007 -19.2921 18.4438 -53.9776 -89.0171 46.1272 27.8556 -1.5606 -1.6777 0.0000 0.0000 0.0000 13.1866 1.9221 1.1020 57.0074 15.2918 15.7419 179.5707 64.2512 -175.2380 -13.0486 5.0563 -1.1364 0.0000 0.0000 0.0000 4.3820 10.5751 -17.3771 6.3914 12.0506 21.2828 -2.7453 0.1802 -4.6238 -0.0000 -0.0000 0.0000
-6.2193 39.3891 8.2827 -176.9500 32.2012 -175.1080 0.0000 0.0000 0.0000 -2.6811 -5.1529 -6.1263 -4.1402 -10.2593 12.8713 11.7341 -0.5021 -6.6898 0.0000 0.0000 -0.0000 0.0000 0.0000 0.0000 -4.3181 2.0942 4.2970 1.8010 1.4930 30.1178 0.0000 0.0000 0.0000 -9.7482 25.2289 -22.2406 0.0000 0.0000 0.0000 -17.1712 -7.3494 2.5856 -48.5639 -19.2821 18.4929 -54.6681 -89.0251 46.8241 27.8942 -1.5823 -1.6853 0.0000 0.0000 0.0000 13.2096 1.9485 1.1045 57.0488 15.2576 15.7661 179.5790 64.2362 -175.1595 -13.0091 5.0295 -1.1303 0.0000 0.0000 0.0000 4.4069 10.6289 -17.3571 6.3807 12.0308 21.2792 -2.7705 0.1818 -4.6306 -0.0000 -0.0000 0.0000
-6.2074 39.3891 8.2805 -176.9480 32.2345 -175.1160 0.0000 0.0000 0.0000 -2.6609 -5.1185 -6.1076 -4.1553 -10.2634 12.8707 11.7176 -0.5003 -6.6921 0.0000 0.0000 -0.0000 0.0000 0.0000 0.0000 -4.2669 2.0815 4.2759 1.7119 1.5243 30.1774 0.0000 0.0000 0.0000 -9.7633 25.3029 -22.2533 0.0000 0.0000 0.0000 -17.2006 -7.2744 2.5707 -48.5287 -19.3382 18.5288 -53.8855 -89.0162 46.0397 27.9340 -1.6072 -1.6938 0.0000 0.0000 0.0000 13.2208 1.9678 1.1066 57.0990 15.2621 15.7641 179.5969 64.2362 -174.9956 -13.0023 5.0723 -1.1346 0.0000 0.0000 0.0000 4.4213 10.6911 -17.3249 6.3677 12.0095 21.2695 -2.7697 0.1818 -4.6300 -0.0000 -0.0000 0.0000
